<svg width="671" height="209" viewBox="0 0 671 209" fill="none" xmlns="http://www.w3.org/2000/svg">
<path d="M1 21L39 43L77 21L39 0L1 21Z" fill="#099170"/>
<path d="M124 45L161 66L199 45L161 23L124 45Z" fill="#FFDC44"/>
<path d="M0 164L78 209V166L37 142V47L0 25V164Z" fill="#099170"/>
<path d="M163 70V114L200 92L199.9 49L163 70Z" fill="#FFDC44"/>
<path d="M82 166V209L159 164V121L82 166Z" fill="#FFDC44"/>
<path d="M41 47V137L78 115V25L41 47Z" fill="#E21B30"/>
<path d="M122 92L159 114V70L122 49V92Z" fill="#FFDC44"/>
<path d="M42.5 140.5L80 162L157 117.5L120 95L42.5 140.5Z" fill="#E21B30"/>
<mask id="path-9-inside-1_141:33" fill="white">
<path fill-rule="evenodd" clip-rule="evenodd" d="M271.432 23V106.75H302.216V121.125H255V23H271.432ZM359.624 64.6667V55.9167H375.016V121.333H359.624V112.583C357.544 115.917 354.632 118.417 350.68 120.292C346.936 122.167 342.984 123 339.032 123C334.04 123 329.464 122.167 325.304 120.292C321.144 118.625 317.608 115.917 314.488 112.792C311.576 109.667 309.08 105.917 307.624 101.75C305.96 97.5833 305.128 93 305.128 88.625C305.128 84.0417 305.96 79.6667 307.624 75.5C309.288 71.3333 311.576 67.5833 314.488 64.4583C317.608 61.3333 321.144 58.625 325.304 56.9583C329.464 55.0833 334.04 54.25 339.032 54.25C342.984 54.25 346.728 55.0833 350.68 56.9583C354.632 58.8333 357.544 61.3333 359.624 64.6667ZM358.376 96.5417C359.416 94.0417 359.832 91.3333 359.832 88.625C359.832 85.9167 359.416 83.2083 358.376 80.7083C357.544 78.2083 356.088 76.125 354.424 74.0417C352.76 72.1667 350.68 70.7083 348.184 69.4583C345.688 68.4167 343.192 67.7917 340.072 67.7917C337.16 67.7917 334.456 68.4167 332.168 69.4583C329.88 70.5 327.8 72.1667 326.136 74.0417C324.472 75.9167 323.016 78.2083 322.184 80.7083C321.352 83.2083 320.728 85.9167 320.728 88.625C320.728 91.3333 321.144 94.0417 321.976 96.5417C322.808 99.0417 324.264 101.333 325.928 103.208C327.592 105.083 329.672 106.542 331.96 107.792C334.248 108.833 336.952 109.458 339.864 109.458C342.776 109.458 345.48 108.833 347.976 107.792C350.264 106.75 352.344 105.292 354.216 103.208C356.088 101.333 357.336 99.0417 358.376 96.5417ZM387.496 121.333V55.9167H429.512V70.9167H402.888V121.333H387.496ZM485.672 64.6667V55.9167H501.064V121.333H485.672V112.583C483.592 115.917 480.68 118.417 476.728 120.292C472.984 122.167 469.032 123 465.08 123C460.088 123 455.512 122.167 451.352 120.292C447.192 118.625 443.656 115.917 440.536 112.792C437.624 109.667 435.128 105.917 433.672 101.75C432.008 97.5833 431.176 93 431.176 88.625C431.176 84.0417 432.008 79.6667 433.672 75.5C435.336 71.3333 437.624 67.5833 440.536 64.4583C443.656 61.3333 447.192 58.625 451.352 56.9583C455.512 55.0833 460.088 54.25 465.08 54.25C469.032 54.25 472.776 55.0833 476.728 56.9583C480.472 58.8333 483.592 61.3333 485.672 64.6667ZM484.216 96.5417C485.256 94.0417 485.672 91.3333 485.672 88.625C485.672 85.9167 485.256 83.2083 484.216 80.7083C483.384 78.2083 481.928 76.125 480.264 74.0417C478.6 72.1667 476.52 70.7083 474.024 69.4583C471.528 68.4167 469.032 67.7917 465.912 67.7917C463 67.7917 460.296 68.4167 458.008 69.4583C455.72 70.5 453.64 72.1667 451.976 74.0417C450.312 75.9167 448.856 78.2083 448.024 80.7083C447.192 83.2083 446.568 85.9167 446.776 88.625C446.776 91.3333 447.192 94.0417 448.024 96.5417C448.856 99.0417 450.312 101.333 451.976 103.208C453.64 105.083 455.72 106.542 458.008 107.792C460.296 108.833 463 109.458 465.912 109.458C468.824 109.458 471.528 108.833 474.024 107.792C476.312 106.75 478.392 105.292 480.264 103.208C481.928 101.333 483.384 99.0417 484.216 96.5417ZM563.256 55.9167H578.856L553.48 121.333H533.928L508.552 55.9167H524.152L543.704 106.125L563.256 55.9167ZM612.76 54.25C633.768 54.25 648.328 72.7917 645.624 94.25H594.04C594.04 99.875 599.864 110.708 613.592 110.708C625.448 110.708 633.352 100.5 633.352 100.5L643.752 108.417C634.392 118.208 626.696 122.792 614.84 122.792C593.416 122.792 578.856 109.458 578.856 88.4166C578.648 69.6666 593.624 54.25 612.76 54.25ZM594.04 83H631.064C630.856 81.75 628.984 66.5417 612.344 66.5417C595.912 66.3333 594.248 81.5417 594.04 83ZM655.608 121.333V23H671V121.333H655.608Z"/>
</mask>
<path fill-rule="evenodd" clip-rule="evenodd" d="M271.432 23V106.75H302.216V121.125H255V23H271.432ZM359.624 64.6667V55.9167H375.016V121.333H359.624V112.583C357.544 115.917 354.632 118.417 350.68 120.292C346.936 122.167 342.984 123 339.032 123C334.04 123 329.464 122.167 325.304 120.292C321.144 118.625 317.608 115.917 314.488 112.792C311.576 109.667 309.08 105.917 307.624 101.75C305.96 97.5833 305.128 93 305.128 88.625C305.128 84.0417 305.96 79.6667 307.624 75.5C309.288 71.3333 311.576 67.5833 314.488 64.4583C317.608 61.3333 321.144 58.625 325.304 56.9583C329.464 55.0833 334.04 54.25 339.032 54.25C342.984 54.25 346.728 55.0833 350.68 56.9583C354.632 58.8333 357.544 61.3333 359.624 64.6667ZM358.376 96.5417C359.416 94.0417 359.832 91.3333 359.832 88.625C359.832 85.9167 359.416 83.2083 358.376 80.7083C357.544 78.2083 356.088 76.125 354.424 74.0417C352.76 72.1667 350.68 70.7083 348.184 69.4583C345.688 68.4167 343.192 67.7917 340.072 67.7917C337.16 67.7917 334.456 68.4167 332.168 69.4583C329.88 70.5 327.8 72.1667 326.136 74.0417C324.472 75.9167 323.016 78.2083 322.184 80.7083C321.352 83.2083 320.728 85.9167 320.728 88.625C320.728 91.3333 321.144 94.0417 321.976 96.5417C322.808 99.0417 324.264 101.333 325.928 103.208C327.592 105.083 329.672 106.542 331.96 107.792C334.248 108.833 336.952 109.458 339.864 109.458C342.776 109.458 345.48 108.833 347.976 107.792C350.264 106.75 352.344 105.292 354.216 103.208C356.088 101.333 357.336 99.0417 358.376 96.5417ZM387.496 121.333V55.9167H429.512V70.9167H402.888V121.333H387.496ZM485.672 64.6667V55.9167H501.064V121.333H485.672V112.583C483.592 115.917 480.68 118.417 476.728 120.292C472.984 122.167 469.032 123 465.08 123C460.088 123 455.512 122.167 451.352 120.292C447.192 118.625 443.656 115.917 440.536 112.792C437.624 109.667 435.128 105.917 433.672 101.75C432.008 97.5833 431.176 93 431.176 88.625C431.176 84.0417 432.008 79.6667 433.672 75.5C435.336 71.3333 437.624 67.5833 440.536 64.4583C443.656 61.3333 447.192 58.625 451.352 56.9583C455.512 55.0833 460.088 54.25 465.08 54.25C469.032 54.25 472.776 55.0833 476.728 56.9583C480.472 58.8333 483.592 61.3333 485.672 64.6667ZM484.216 96.5417C485.256 94.0417 485.672 91.3333 485.672 88.625C485.672 85.9167 485.256 83.2083 484.216 80.7083C483.384 78.2083 481.928 76.125 480.264 74.0417C478.6 72.1667 476.52 70.7083 474.024 69.4583C471.528 68.4167 469.032 67.7917 465.912 67.7917C463 67.7917 460.296 68.4167 458.008 69.4583C455.72 70.5 453.64 72.1667 451.976 74.0417C450.312 75.9167 448.856 78.2083 448.024 80.7083C447.192 83.2083 446.568 85.9167 446.776 88.625C446.776 91.3333 447.192 94.0417 448.024 96.5417C448.856 99.0417 450.312 101.333 451.976 103.208C453.64 105.083 455.72 106.542 458.008 107.792C460.296 108.833 463 109.458 465.912 109.458C468.824 109.458 471.528 108.833 474.024 107.792C476.312 106.75 478.392 105.292 480.264 103.208C481.928 101.333 483.384 99.0417 484.216 96.5417ZM563.256 55.9167H578.856L553.48 121.333H533.928L508.552 55.9167H524.152L543.704 106.125L563.256 55.9167ZM612.76 54.25C633.768 54.25 648.328 72.7917 645.624 94.25H594.04C594.04 99.875 599.864 110.708 613.592 110.708C625.448 110.708 633.352 100.5 633.352 100.5L643.752 108.417C634.392 118.208 626.696 122.792 614.84 122.792C593.416 122.792 578.856 109.458 578.856 88.4166C578.648 69.6666 593.624 54.25 612.76 54.25ZM594.04 83H631.064C630.856 81.75 628.984 66.5417 612.344 66.5417C595.912 66.3333 594.248 81.5417 594.04 83ZM655.608 121.333V23H671V121.333H655.608Z" fill="#111827" stroke="white" stroke-width="2" mask="url(#path-9-inside-1_141:33)"/>
<mask id="path-10-inside-2_141:33" fill="white">
<path d="M335.922 172.888C333.42 171.41 331.335 169.509 330.085 166.975C328.625 164.441 328 161.484 328 158.106C328 154.727 328.625 151.77 330.085 149.236C331.544 146.702 333.42 144.801 335.922 143.323C338.423 141.845 341.342 141.211 344.885 141.211C346.97 141.211 349.055 141.634 351.139 142.267C353.224 142.901 354.683 143.745 355.934 144.801L353.224 150.925C350.514 149.025 347.804 147.969 344.885 147.969C342.175 147.969 340.299 148.814 338.84 150.503C337.381 152.193 336.755 154.727 336.755 157.894C336.755 161.273 337.381 163.807 338.84 165.497C340.299 167.186 342.384 168.031 344.885 168.031C347.804 168.031 350.514 166.975 353.224 165.075L355.934 171.199C354.683 172.255 353.015 173.099 351.139 173.733C349.055 174.366 346.97 174.789 344.885 174.789C341.342 175 338.423 174.366 335.922 172.888ZM385.118 174.578L382.2 167.82H367.608L364.689 174.578H355.934L371.36 141.634H378.239L393.665 174.578H385.118ZM370.526 161.273H379.49L375.112 150.925L370.526 161.273ZM422.016 141.634H428.687V174.578H421.182V159.584L414.928 174.578H409.508L403.255 159.584V174.578H395.75V141.634H402.629L412.427 164.23L422.016 141.634ZM434.941 141.634H458.288V148.391H443.279V154.516H457.246V161.273H443.279V168.031H458.288V174.789H434.941V141.634ZM491.225 174.578H482.053L477.884 163.596C477.467 162.329 476.216 161.696 474.34 161.696H471.213V174.578H462.666V141.634H477.884C481.845 141.634 484.763 142.478 486.848 144.168C488.932 145.857 489.766 148.391 489.766 151.559C489.766 153.882 489.141 155.783 487.89 157.261C486.639 158.95 484.972 160.006 482.887 160.64C483.721 160.851 484.555 161.273 485.388 161.907C486.222 162.54 486.639 163.596 487.056 164.652L491.225 174.578ZM480.594 154.516C481.428 153.882 481.845 153.037 481.845 151.77C481.845 150.503 481.428 149.658 480.594 149.025C479.76 148.391 478.509 148.18 476.633 148.18H471.213V155.36H476.633C478.509 155.36 479.76 154.938 480.594 154.516ZM502.274 172.888C499.772 171.621 497.896 169.509 496.437 166.975C495.186 164.441 494.352 161.484 494.352 157.894C494.352 154.516 494.978 151.559 496.437 149.025C497.688 146.491 499.772 144.59 502.274 143.112C504.775 141.634 507.694 141 511.029 141C514.365 141 517.283 141.634 519.785 143.112C522.286 144.379 524.162 146.491 525.413 149.025C526.664 151.559 527.498 154.516 527.498 157.894C527.498 161.273 526.872 164.23 525.413 166.975C524.162 169.509 522.286 171.41 519.785 172.888C517.283 174.366 514.365 175 511.029 175C507.694 175 504.775 174.366 502.274 172.888ZM516.866 165.708C518.325 164.019 518.951 161.484 518.951 158.106C518.951 154.727 518.325 152.193 516.866 150.503C515.407 148.814 513.531 147.969 511.029 147.969C508.528 147.969 506.652 148.814 505.192 150.503C503.733 152.193 503.108 154.727 503.108 158.106C503.108 161.484 503.733 164.019 505.192 165.708C506.652 167.398 508.528 168.242 511.029 168.242C513.531 168.453 515.407 167.398 516.866 165.708ZM539.38 172.888C536.878 171.621 535.002 169.509 533.543 166.975C532.292 164.441 531.458 161.484 531.458 157.894C531.458 154.516 532.084 151.559 533.543 149.025C534.794 146.491 536.878 144.59 539.38 143.112C541.882 141.845 544.8 141 548.135 141C551.471 141 554.389 141.634 556.891 143.112C559.392 144.59 561.268 146.491 562.519 149.025C563.77 151.559 564.604 154.516 564.604 157.894C564.604 161.273 563.978 164.23 562.519 166.975C561.268 169.509 559.392 171.41 556.891 172.888C554.389 174.366 551.471 175 548.135 175C544.8 175 541.882 174.366 539.38 172.888ZM553.972 165.708C555.432 164.019 556.057 161.484 556.057 158.106C556.057 154.727 555.432 152.193 553.972 150.503C552.513 148.814 550.637 147.969 548.135 147.969C545.634 147.969 543.758 148.814 542.298 150.503C540.839 152.193 540.214 154.727 540.214 158.106C540.214 161.484 540.839 164.019 542.298 165.708C543.758 167.398 545.634 168.242 548.135 168.242C550.637 168.453 552.513 167.398 553.972 165.708ZM599 141.634V174.578H592.538L577.737 155.783V174.578H569.607V141.634H575.861L590.662 160.217V141.634H599Z"/>
</mask>
<path d="M335.922 172.888C333.42 171.41 331.335 169.509 330.085 166.975C328.625 164.441 328 161.484 328 158.106C328 154.727 328.625 151.77 330.085 149.236C331.544 146.702 333.42 144.801 335.922 143.323C338.423 141.845 341.342 141.211 344.885 141.211C346.97 141.211 349.055 141.634 351.139 142.267C353.224 142.901 354.683 143.745 355.934 144.801L353.224 150.925C350.514 149.025 347.804 147.969 344.885 147.969C342.175 147.969 340.299 148.814 338.84 150.503C337.381 152.193 336.755 154.727 336.755 157.894C336.755 161.273 337.381 163.807 338.84 165.497C340.299 167.186 342.384 168.031 344.885 168.031C347.804 168.031 350.514 166.975 353.224 165.075L355.934 171.199C354.683 172.255 353.015 173.099 351.139 173.733C349.055 174.366 346.97 174.789 344.885 174.789C341.342 175 338.423 174.366 335.922 172.888ZM385.118 174.578L382.2 167.82H367.608L364.689 174.578H355.934L371.36 141.634H378.239L393.665 174.578H385.118ZM370.526 161.273H379.49L375.112 150.925L370.526 161.273ZM422.016 141.634H428.687V174.578H421.182V159.584L414.928 174.578H409.508L403.255 159.584V174.578H395.75V141.634H402.629L412.427 164.23L422.016 141.634ZM434.941 141.634H458.288V148.391H443.279V154.516H457.246V161.273H443.279V168.031H458.288V174.789H434.941V141.634ZM491.225 174.578H482.053L477.884 163.596C477.467 162.329 476.216 161.696 474.34 161.696H471.213V174.578H462.666V141.634H477.884C481.845 141.634 484.763 142.478 486.848 144.168C488.932 145.857 489.766 148.391 489.766 151.559C489.766 153.882 489.141 155.783 487.89 157.261C486.639 158.95 484.972 160.006 482.887 160.64C483.721 160.851 484.555 161.273 485.388 161.907C486.222 162.54 486.639 163.596 487.056 164.652L491.225 174.578ZM480.594 154.516C481.428 153.882 481.845 153.037 481.845 151.77C481.845 150.503 481.428 149.658 480.594 149.025C479.76 148.391 478.509 148.18 476.633 148.18H471.213V155.36H476.633C478.509 155.36 479.76 154.938 480.594 154.516ZM502.274 172.888C499.772 171.621 497.896 169.509 496.437 166.975C495.186 164.441 494.352 161.484 494.352 157.894C494.352 154.516 494.978 151.559 496.437 149.025C497.688 146.491 499.772 144.59 502.274 143.112C504.775 141.634 507.694 141 511.029 141C514.365 141 517.283 141.634 519.785 143.112C522.286 144.379 524.162 146.491 525.413 149.025C526.664 151.559 527.498 154.516 527.498 157.894C527.498 161.273 526.872 164.23 525.413 166.975C524.162 169.509 522.286 171.41 519.785 172.888C517.283 174.366 514.365 175 511.029 175C507.694 175 504.775 174.366 502.274 172.888ZM516.866 165.708C518.325 164.019 518.951 161.484 518.951 158.106C518.951 154.727 518.325 152.193 516.866 150.503C515.407 148.814 513.531 147.969 511.029 147.969C508.528 147.969 506.652 148.814 505.192 150.503C503.733 152.193 503.108 154.727 503.108 158.106C503.108 161.484 503.733 164.019 505.192 165.708C506.652 167.398 508.528 168.242 511.029 168.242C513.531 168.453 515.407 167.398 516.866 165.708ZM539.38 172.888C536.878 171.621 535.002 169.509 533.543 166.975C532.292 164.441 531.458 161.484 531.458 157.894C531.458 154.516 532.084 151.559 533.543 149.025C534.794 146.491 536.878 144.59 539.38 143.112C541.882 141.845 544.8 141 548.135 141C551.471 141 554.389 141.634 556.891 143.112C559.392 144.59 561.268 146.491 562.519 149.025C563.77 151.559 564.604 154.516 564.604 157.894C564.604 161.273 563.978 164.23 562.519 166.975C561.268 169.509 559.392 171.41 556.891 172.888C554.389 174.366 551.471 175 548.135 175C544.8 175 541.882 174.366 539.38 172.888ZM553.972 165.708C555.432 164.019 556.057 161.484 556.057 158.106C556.057 154.727 555.432 152.193 553.972 150.503C552.513 148.814 550.637 147.969 548.135 147.969C545.634 147.969 543.758 148.814 542.298 150.503C540.839 152.193 540.214 154.727 540.214 158.106C540.214 161.484 540.839 164.019 542.298 165.708C543.758 167.398 545.634 168.242 548.135 168.242C550.637 168.453 552.513 167.398 553.972 165.708ZM599 141.634V174.578H592.538L577.737 155.783V174.578H569.607V141.634H575.861L590.662 160.217V141.634H599Z" fill="#111827" stroke="white" stroke-width="2" mask="url(#path-10-inside-2_141:33)"/>
</svg>
